<svg xmlns="http://www.w3.org/2000/svg" width="803" height="567" viewBox="-80 -80 1360 960">
<rect x="-80" y="-80" width="1360" height="960" fill="#ffffff"/>
<g fill="#1f2328">
<rect x="0" y="-7.5" width="150" height="15"/>
<rect x="300" y="-7.5" width="450" height="15"/>
<rect x="900" y="-7.5" width="300" height="15"/>
<rect x="0" y="792.5" width="200" height="15"/>
<rect x="350" y="792.5" width="600" height="15"/>
<rect x="1040" y="792.5" width="160" height="15"/>
<rect x="-7.5" y="0" width="15" height="500"/>
<rect x="-7.5" y="650" width="15" height="150"/>
<rect x="1192.5" y="0" width="15" height="150"/>
<rect x="1192.5" y="300" width="15" height="500"/>
<rect x="494.0" y="0" width="12" height="230"/>
<rect x="494.0" y="320" width="12" height="240"/>
<rect x="494.0" y="650" width="12" height="150"/>
<rect x="0" y="394.0" width="180" height="12"/>
<rect x="270" y="394.0" width="230" height="12"/>
<rect x="500" y="394.0" width="100" height="12"/>
<rect x="690" y="394.0" width="510" height="12"/>
<rect x="844.0" y="400" width="12" height="70"/>
<rect x="844.0" y="560" width="12" height="240"/>
<rect x="-15.0" y="-15.0" width="30" height="30"/>
<rect x="485.0" y="-15.0" width="30" height="30"/>
<rect x="1185.0" y="-15.0" width="30" height="30"/>
<rect x="-15.0" y="385.0" width="30" height="30"/>
<rect x="485.0" y="385.0" width="30" height="30"/>
<rect x="1185.0" y="385.0" width="30" height="30"/>
<rect x="-15.0" y="785.0" width="30" height="30"/>
<rect x="485.0" y="785.0" width="30" height="30"/>
<rect x="835.0" y="785.0" width="30" height="30"/>
<rect x="1185.0" y="785.0" width="30" height="30"/>
<rect x="835.0" y="385.0" width="30" height="30"/>
</g>
<g stroke="#1f2328" stroke-width="1.5" fill="none">
<path d="M150 -3H300M150 3H300"/>
<path d="M750 -3H900M750 3H900"/>
<path d="M200 797H350M200 803H350"/>
<path d="M-3 500V650M3 500V650"/>
<path d="M1197 150V300M1203 150V300"/>
<path d="M950 800V710A90 90 0 0 1 1040 800" />
<path d="M500 230H590A90 90 0 0 1 500 320" />
<path d="M500 560H410A90 90 0 0 0 500 650" />
<path d="M180 400V490A90 90 0 0 0 270 400" />
<path d="M600 400V490A90 90 0 0 0 690 400" />
<path d="M850 470H940A90 90 0 0 1 850 560" />
</g>
<g stroke="#5a6570" stroke-width="1.2" fill="none"><path d="M0 860H1200M0 850V870M1200 850V870"/></g>
<g font-family="Arial, sans-serif" font-size="26" fill="#5a6570" text-anchor="middle">
<text x="600" y="850">12,00 m</text>
<text x="250" y="200">Sala comedor</text>
<text x="850" y="200">Cocina</text>
<text x="250" y="600">Habitación 1</text>
<text x="675" y="600">Baño</text>
<text x="1025" y="600">Habitación 2</text>
</g></svg>